<svg width="30" height="30" viewBox="0 0 30 30" fill="none" xmlns="http://www.w3.org/2000/svg">
<path d="M19.9195 18.7056L16.214 15.0001L19.9195 11.2946C20.3554 10.8587 20.3554 10.1415 19.9195 9.70558C19.4835 9.26964 18.7663 9.26964 18.3304 9.70558L14.6249 13.411L10.9195 9.70558C10.4835 9.26964 9.82258 9.20636 9.33039 9.70558C8.83117 10.2048 8.90852 10.8728 9.33039 11.2946C9.75227 11.7165 13.0359 15.0001 13.0359 15.0001C13.0359 15.0001 9.80149 18.2345 9.33039 18.7056C8.8593 19.1767 8.88039 19.8517 9.33039 20.2946C9.78039 20.7446 10.4835 20.7306 10.9195 20.2946L14.6249 16.5892L18.3304 20.2946C18.7663 20.7306 19.4835 20.7306 19.9195 20.2946C20.3624 19.8587 20.3624 19.1415 19.9195 18.7056Z" fill="white"/>
<path d="M14.625 2.34375C18.007 2.34375 21.1852 3.65859 23.5758 6.04922C25.9664 8.43984 27.2812 11.618 27.2812 15C27.2812 18.382 25.9664 21.5602 23.5758 23.9508C21.1852 26.3414 18.007 27.6562 14.625 27.6562C11.243 27.6562 8.06484 26.3414 5.67422 23.9508C3.28359 21.5602 1.96875 18.382 1.96875 15C1.96875 11.618 3.28359 8.43984 5.67422 6.04922C8.06484 3.65859 11.243 2.34375 14.625 2.34375ZM14.625 0.375C6.54609 0.375 0 6.92109 0 15C0 23.0789 6.54609 29.625 14.625 29.625C22.7039 29.625 29.25 23.0789 29.25 15C29.25 6.92109 22.7039 0.375 14.625 0.375Z" fill="white"/>
</svg>
